Coordinates
version=1
nRows=9
nColumns=24
inDegrees=yes

Units are S.I. units (second, meters, Newtons, ...)
Angles are in degrees.

endheader
time	pelvis_tilt	pelvis_list	pelvis_rotation	pelvis_tx	pelvis_ty	pelvis_tz	hip_flexion_r	hip_adduction_r	hip_rotation_r	knee_angle_r	ankle_angle_r	subtalar_angle_r	mtp_angle_r	hip_flexion_l	hip_adduction_l	hip_rotation_l	knee_angle_l	ankle_angle_l	subtalar_angle_l	mtp_angle_l	lumbar_extension	lumbar_bending	lumbar_rotation
      6.26000000	     34.45186522	     -1.06078976	      5.10988738	      1.12754313	      0.66377287	     -0.29671836	    -46.39580219	      5.99533648	     -5.08843067	    -15.38040403	     20.84983367	     12.75548455	      0.00000000	    -14.27658427	     -0.84239424	     -8.99557853	     -0.56786759	     13.28273749	     15.61713660	      0.00000000	    -62.92806800	      4.65050674	      0.66773205
      6.26500000	     34.52027282	     -1.09484688	      5.00449186	      1.13298096	      0.66332405	     -0.29693032	    -46.56933468	      5.87827785	     -5.02632896	    -16.19730782	     20.57394302	     12.88026569	      0.00000000	    -14.31164708	     -0.85921455	     -8.79981096	     -0.75039997	     12.98724449	     15.71801240	      0.00000000	    -62.95695772	      4.49354777	      0.57966775
      6.27000000	     34.63793131	     -1.14352560	      4.81021004	      1.13843296	      0.66297535	     -0.29714763	    -46.71251725	      5.68725942	     -4.94378862	    -17.17224382	     20.28516052	     13.11481109	      0.00000000	    -14.41382596	     -0.86519707	     -8.67391225	     -1.06549595	     12.58699374	     15.65035380	      0.00000000	    -63.03425138	      4.30298533	      0.52691404
      6.27500000	     34.77734438	     -1.17783526	      4.50178496	      1.14395512	      0.66272266	     -0.29727810	    -46.82596647	      5.38762635	     -4.86941304	    -18.24732218	     19.92265263	     13.40185816	      0.00000000	    -14.51719890	     -0.83875747	     -8.54501335	     -1.60758050	     12.18907698	     15.46419286	      0.00000000	    -63.12782840	      4.00123263	      0.54918149
      6.28000000	     34.93014321	     -1.15465398	      4.27868508	      1.14941015	      0.66249787	     -0.29743669	    -46.87578324	      5.10814033	     -4.88653872	    -19.45970729	     19.44992990	     13.61506531	      0.00000000	    -14.57656745	     -0.78383504	     -8.44046933	     -2.35122901	     11.75623276	     15.37435771	      0.00000000	    -63.24960748	      3.72442450	      0.47868648
      6.28500000	     35.07143505	     -1.15404191	      3.94104319	      1.15493406	      0.66235386	     -0.29755372	    -46.83938376	      4.73617317	     -4.90871118	    -20.79431260	     18.89674608	     13.90319449	      0.00000000	    -14.61577022	     -0.71648993	     -8.29459694	     -3.25169345	     11.28379857	     15.05308383	      0.00000000	    -63.35009245	      3.37197733	      0.47399262
      6.29000000	     35.22328190	     -1.12109426	      3.65264209	      1.16040412	      0.66224443	     -0.29769990	    -46.73124686	      4.36763847	     -5.01085120	    -22.26275156	     18.21080065	     14.13690661	      0.00000000	    -14.62924111	     -0.63059812	     -8.14209856	     -4.28862326	     10.77498200	     14.78401625	      0.00000000	    -63.47495927	      3.04332814	      0.40423851
      6.29500000	     35.36150698	     -1.07101073	      3.36880402	      1.16587740	      0.66217013	     -0.29787061	    -46.53247320	      3.97163059	     -5.16842827	    -23.84853779	     17.39583374	     14.36311897	      0.00000000	    -14.60333310	     -0.51961788	     -7.94460131	     -5.44349375	     10.25077800	     14.41738522	      0.00000000	    -63.58270027	      2.70995235	      0.32482723
      6.30000000	     35.48724467	     -1.00894627	      3.10614669	      1.17132754	      0.66212142	     -0.29808771	    -46.24565574	      3.56233697	     -5.39965876	    -25.53804389	     16.43260161	     14.55210708	      0.00000000	    -14.53725115	     -0.39159387	     -7.69797088	     -6.69905347	      9.72156144	     13.99964273	      0.00000000	    -63.68586482	      2.39164544	      0.21631251
